<svg width="24" height="24" viewBox="0 0 24 24" fill="none" xmlns="http://www.w3.org/2000/svg">
<path d="M14 8C14 6.89543 13.1046 6 12 6C10.8954 6 10 6.89543 10 8C10 9.10457 10.8954 10 12 10C13.1046 10 14 9.10457 14 8ZM16 8C16 10.2091 14.2091 12 12 12C9.79086 12 8 10.2091 8 8C8 5.79086 9.79086 4 12 4C14.2091 4 16 5.79086 16 8Z" fill="#F5F5F5"/>
<path d="M7.39335 6.0139C7.78567 6.06491 8.16402 6.19305 8.50663 6.39086C8.84916 6.58865 9.14917 6.85206 9.38945 7.16625C9.62977 7.48053 9.8059 7.83941 9.90702 8.22191C10.0081 8.60429 10.0328 9.0029 9.97929 9.39476C9.92569 9.78676 9.79462 10.1648 9.59452 10.5061C9.19386 11.1893 8.539 11.6864 7.77324 11.8889C7.00741 12.0913 6.19263 11.9822 5.50663 11.5862C4.82066 11.1901 4.31868 10.5391 4.11113 9.77465C3.90361 9.01029 4.0069 8.19467 4.39824 7.50609C4.59378 7.16216 4.85606 6.85983 5.16874 6.61742C5.48138 6.37509 5.83876 6.19665 6.2205 6.09301C6.60232 5.98935 7.00101 5.96291 7.39335 6.0139ZM17.3934 6.0139C17.7857 6.06491 18.164 6.19305 18.5066 6.39086C18.8492 6.58865 19.1492 6.85206 19.3894 7.16625C19.6298 7.48054 19.8059 7.83942 19.907 8.22191C20.0081 8.60428 20.0328 9.0029 19.9793 9.39476C19.9257 9.78676 19.7946 10.1648 19.5945 10.5061C19.1939 11.1893 18.539 11.6864 17.7732 11.8889C17.0074 12.0913 16.1926 11.9822 15.5066 11.5862C14.8207 11.1901 14.3187 10.5391 14.1111 9.77465C13.9036 9.01029 14.0069 8.19467 14.3982 7.50609C14.5938 7.16216 14.8561 6.85983 15.1687 6.61742C15.4814 6.37509 15.8388 6.19665 16.2205 6.09301C16.6023 5.98935 17.001 5.96291 17.3934 6.0139ZM7.13554 7.9973C7.00483 7.98031 6.87212 7.98916 6.74492 8.02367C6.61768 8.05821 6.49853 8.11771 6.39433 8.19848C6.2901 8.27928 6.20268 8.37973 6.13749 8.49437C6.00702 8.72386 5.97268 8.99546 6.04179 9.25023C6.11098 9.50507 6.27795 9.72269 6.50663 9.85473C6.7353 9.98672 7.00723 10.0228 7.26249 9.95531C7.51759 9.8878 7.73542 9.72198 7.86894 9.49437C7.9356 9.38066 7.97996 9.25485 7.99784 9.12426C8.01571 8.99359 8.00714 8.86015 7.97343 8.73265C7.93971 8.60525 7.88064 8.48579 7.80058 8.38109C7.7205 8.27642 7.62077 8.1882 7.50663 8.1223C7.39247 8.0564 7.26626 8.0143 7.13554 7.9973ZM17.1355 7.9973C17.0048 7.98031 16.8721 7.98916 16.7449 8.02367C16.6177 8.05821 16.4985 8.11771 16.3943 8.19848C16.2901 8.27928 16.2027 8.37973 16.1375 8.49437C16.007 8.72386 15.9727 8.99546 16.0418 9.25023C16.111 9.50508 16.2779 9.72269 16.5066 9.85473C16.7353 9.98672 17.0072 10.0228 17.2625 9.95531C17.5176 9.8878 17.7354 9.72198 17.8689 9.49437C17.9356 9.38066 17.98 9.25484 17.9978 9.12426C18.0157 8.9936 18.0071 8.86016 17.9734 8.73265C17.9397 8.60524 17.8806 8.48579 17.8006 8.38109C17.7205 8.27642 17.6208 8.1882 17.5066 8.1223C17.3925 8.0564 17.2663 8.0143 17.1355 7.9973Z" fill="#F5F5F5"/>
<path d="M16.882 18L15.902 18.197L16.062 19H16.882V18ZM14.78 14.711L14.176 13.914L13.019 14.793L14.253 15.56L14.78 14.711ZM19.868 17H16.883L16.882 19H19.868V17ZM19.778 17.238C19.7674 17.2047 19.7656 17.1692 19.773 17.135C19.7783 17.0994 19.7932 17.0659 19.816 17.038C19.848 16.998 19.875 17 19.868 17V19C21.014 19 22.141 17.92 21.663 16.57L19.778 17.238ZM17 15C18.642 15 19.403 16.181 19.778 17.238L21.663 16.57C21.198 15.259 19.948 13 17 13V15ZM15.386 15.507C15.77 15.215 16.282 15 17 15V13C15.838 13 14.903 13.362 14.176 13.914L15.386 15.507ZM14.253 15.56C15.292 16.206 15.727 17.332 15.901 18.197L17.861 17.803C17.644 16.72 17.037 14.936 15.309 13.861L14.253 15.56ZM9.22001 14.71L9.74701 15.56L10.981 14.793L9.82401 13.914L9.22001 14.71ZM7.11801 18V19H7.93701L8.09901 18.197L7.11801 18ZM7.00001 15C7.71801 15 8.23001 15.215 8.61401 15.507L9.82401 13.914C9.09701 13.362 8.16201 13 7.00001 13V15ZM4.22201 17.238C4.59701 16.181 5.35801 15 7.00001 15V13C4.05201 13 2.80201 15.259 2.33701 16.57L4.22201 17.238ZM4.13201 17C4.12601 17 4.15201 16.998 4.18501 17.038C4.20745 17.066 4.22196 17.0995 4.22701 17.135C4.23437 17.1692 4.23265 17.2047 4.22201 17.238L2.33701 16.57C1.86001 17.92 2.98701 19 4.13301 19L4.13201 17ZM7.11801 17H4.13201L4.13301 19H7.11801V17ZM8.09801 18.197C8.27301 17.332 8.70801 16.206 9.74801 15.56L8.69001 13.86C6.96201 14.935 6.35501 16.72 6.13701 17.802L8.09801 18.197Z" fill="#F5F5F5"/>
<path d="M11.9997 13C14.056 13 15.4786 13.7488 16.4147 14.7891C17.3194 15.7944 17.7001 16.9922 17.864 17.8135H17.863C18.1182 19.0863 17.0625 20 15.9997 20H7.99971C6.93834 19.9998 5.87973 19.0859 6.13643 17.8115C6.30053 16.9898 6.6806 15.7926 7.58467 14.7881C8.52084 13.7479 9.9437 13.0001 11.9997 13ZM11.9997 15C10.4841 15.0001 9.6105 15.5265 9.071 16.126C8.55962 16.6942 8.2863 17.401 8.14326 18H15.8562C15.7131 17.4014 15.4397 16.6952 14.9284 16.127C14.3888 15.5273 13.5153 15 11.9997 15Z" fill="#F5F5F5"/>
</svg>
