<svg width="24" height="24" viewBox="0 0 24 24" fill="none" xmlns="http://www.w3.org/2000/svg">
<path d="M12 2C14.6522 2 17.1959 3.05335 19.0713 4.92871C20.9467 6.80407 22 9.34784 22 12L21.9873 12.4961C21.8646 14.9676 20.8294 17.3132 19.0713 19.0713C17.1959 20.9467 14.6522 22 12 22L11.5039 21.9873C9.03237 21.8646 6.68681 20.8294 4.92871 19.0713C3.05335 17.1959 2 14.6522 2 12C2 9.34784 3.05335 6.80407 4.92871 4.92871C6.80407 3.05335 9.34784 2 12 2ZM9.02637 13C9.12802 14.9663 9.5236 16.6947 10.085 17.958C10.4128 18.6958 10.7775 19.2311 11.1318 19.5684C11.4811 19.9007 11.7728 20 12 20C12.2272 20 12.5189 19.9007 12.8682 19.5684C13.2225 19.2311 13.5872 18.6958 13.915 17.958C14.4764 16.6947 14.872 14.9663 14.9736 13H9.02637ZM4.06543 13C4.28631 14.7529 5.08023 16.3947 6.34277 17.6572C6.96192 18.2764 7.6736 18.7809 8.44336 19.1631C8.37933 19.0345 8.31725 18.9033 8.25781 18.7695C7.56817 17.2175 7.12656 15.2037 7.02344 13H4.06543ZM16.9766 13C16.8734 15.2037 16.4318 17.2175 15.7422 18.7695C15.6827 18.9034 15.6198 19.0344 15.5557 19.1631C16.3257 18.7809 17.0379 18.2766 17.6572 17.6572C18.9198 16.3947 19.7137 14.7529 19.9346 13H16.9766ZM15.5557 4.83594C15.6199 4.96486 15.6826 5.0963 15.7422 5.23047C16.4318 6.7825 16.8734 8.79629 16.9766 11H19.9346C19.7137 9.24713 18.9198 7.60532 17.6572 6.34277C17.0378 5.72331 16.3259 5.21819 15.5557 4.83594ZM12 4C11.7728 4 11.4811 4.09929 11.1318 4.43164C10.7775 4.76889 10.4128 5.30416 10.085 6.04199C9.5236 7.30531 9.12802 9.03366 9.02637 11H14.9736C14.872 9.03366 14.4764 7.30531 13.915 6.04199C13.5872 5.30416 13.2225 4.76889 12.8682 4.43164C12.5189 4.09929 12.2272 4 12 4ZM8.44336 4.83594C7.67345 5.21814 6.96202 5.72352 6.34277 6.34277C5.08023 7.60532 4.28631 9.24713 4.06543 11H7.02344C7.12656 8.79629 7.56817 6.7825 8.25781 5.23047C8.31737 5.09644 8.37919 4.96474 8.44336 4.83594Z" fill="#F5F5F5"/>
</svg>
