<svg width="24" height="24" viewBox="0 0 24 24" fill="none" xmlns="http://www.w3.org/2000/svg">
<path d="M12.9189 20.1829C13.5533 20.1829 14.0676 20.7016 14.0676 21.3415C14.0676 21.9813 13.5533 22.5 12.9189 22.5H11.0811C10.4467 22.5 9.93243 21.9813 9.93243 21.3415C9.93243 20.7016 10.4467 20.1829 11.0811 20.1829H12.9189ZM16.3649 10.2195C16.3649 9.05191 15.9047 7.93247 15.0861 7.10685C14.3186 6.33279 13.2952 5.87645 12.2163 5.8225L12 5.81707C10.8424 5.81707 9.73248 6.28123 8.9139 7.10685C8.09533 7.93247 7.63514 9.05191 7.63514 10.2195V17.4024H16.3649V10.2195ZM18.6622 17.4024H19.3514C19.9857 17.4024 20.5 17.9211 20.5 18.561C20.5 19.2008 19.9857 19.7195 19.3514 19.7195H4.64865C4.01427 19.7195 3.5 19.2008 3.5 18.561C3.5 17.9211 4.01427 17.4024 4.64865 17.4024H5.33784V10.2195C5.33784 8.43739 6.03935 6.72785 7.28875 5.4677C8.53814 4.20755 10.2331 3.5 12 3.5C13.7669 3.5 15.4619 4.20755 16.7113 5.4677C17.9607 6.72786 18.6622 8.43739 18.6622 10.2195V17.4024Z" fill="#F5F5F5"/>
<path d="M12 3.27778C11.8773 3.27778 11.7778 3.37727 11.7778 3.5C11.7778 3.62273 11.8773 3.72222 12 3.72222C12.1227 3.72222 12.2222 3.62273 12.2222 3.5C12.2222 3.37727 12.1227 3.27778 12 3.27778ZM14 3.5C14 4.60457 13.1046 5.5 12 5.5C10.8954 5.5 10 4.60457 10 3.5C10 2.39543 10.8954 1.5 12 1.5C13.1046 1.5 14 2.39543 14 3.5Z" fill="#F5F5F5"/>
</svg>
