<svg width="24" height="24" viewBox="0 0 24 24" fill="none" xmlns="http://www.w3.org/2000/svg">
<path d="M8.5 8C9.05228 8 9.5 8.44772 9.5 9V21C9.5 21.5523 9.05228 22 8.5 22H2C1.44772 22 1 21.5523 1 21V9C1 8.44772 1.44772 8 2 8H8.5ZM3 20H7.5V10H3V20Z" fill="white"/>
<path d="M15 2C15.5523 2 16 2.44772 16 3V21C16 21.5523 15.5523 22 15 22H8.5C7.94772 22 7.5 21.5523 7.5 21V3C7.5 2.44772 7.94772 2 8.5 2H15ZM9.5 20H14V4H9.5V20Z" fill="white"/>
<path d="M21.5 12C22.0523 12 22.5 12.4477 22.5 13V21C22.5 21.5523 22.0523 22 21.5 22H15C14.4477 22 14 21.5523 14 21V13C14 12.4477 14.4477 12 15 12H21.5ZM16 20H20.5V14H16V20Z" fill="white"/>
</svg>
