<svg width="24" height="24" viewBox="0 0 24 24" fill="none" xmlns="http://www.w3.org/2000/svg">
<path fill-rule="evenodd" clip-rule="evenodd" d="M17.9909 6.01003L5.39895 10.563L9.59394 12.991L13.2929 9.29103C13.4806 9.10352 13.735 8.99823 14.0003 8.99833C14.2656 8.99842 14.5199 9.10389 14.7074 9.29153C14.895 9.47917 15.0002 9.73361 15.0001 9.99888C15.0001 10.2642 14.8946 10.5185 14.7069 10.706L11.0069 14.406L13.4369 18.6L17.9909 6.01003ZM18.3139 3.76603C19.5089 3.33303 20.6669 4.49103 20.2339 5.68603L14.9519 20.291C14.5179 21.489 12.8819 21.635 12.2429 20.532L9.02594 14.974L3.46794 11.757C2.36494 11.118 2.51095 9.48203 3.70895 9.04803L18.3139 3.76603Z" fill="#F5F5F5"/>
</svg>
