<svg width="24" height="24" viewBox="0 0 24 24" fill="none" xmlns="http://www.w3.org/2000/svg">
<path fill-rule="evenodd" clip-rule="evenodd" d="M4.5 4.5C4.5 3.83696 4.77484 3.20107 5.26407 2.73223C5.75329 2.26339 6.41683 2 7.1087 2H18.5217C18.7812 2 19.03 2.09877 19.2135 2.27459C19.3969 2.4504 19.5 2.68886 19.5 2.9375V16.0625C19.5 16.3111 19.3969 16.5496 19.2135 16.7254C19.03 16.9012 18.7812 17 18.5217 17H11.3478V18.875H18.5217C18.7812 18.875 19.03 18.9738 19.2135 19.1496C19.3969 19.3254 19.5 19.5639 19.5 19.8125C19.5 20.0611 19.3969 20.2996 19.2135 20.4754C19.03 20.6512 18.7812 20.75 18.5217 20.75H11.3478V22H9.3913V20.75H7.43478C6.65643 20.75 5.90996 20.4537 5.35958 19.9262C4.8092 19.3988 4.5 18.6834 4.5 17.9375V4.5ZM9.3913 18.875V17H7.43478C7.17533 17 6.92651 17.0988 6.74305 17.2746C6.55959 17.4504 6.45652 17.6889 6.45652 17.9375C6.45652 18.1861 6.55959 18.4246 6.74305 18.6004C6.92651 18.7762 7.17533 18.875 7.43478 18.875H9.3913ZM17.5435 3.875V15.125H7.43478C7.09043 15.1267 6.76435 15.18 6.45652 15.285V4.5C6.45652 4.33424 6.52523 4.17527 6.64754 4.05806C6.76985 3.94085 6.93573 3.875 7.1087 3.875H17.5435Z" fill="#F5F5F5"/>
</svg>
